<?xml version="1.0" encoding="UTF-8" standalone="no"?>
<!-- Created with Inkscape (http://www.inkscape.org/) -->

<svg
   xmlns:dc="http://purl.org/dc/elements/1.1/"
   xmlns:cc="http://creativecommons.org/ns#"
   xmlns:rdf="http://www.w3.org/1999/02/22-rdf-syntax-ns#"
   xmlns:svg="http://www.w3.org/2000/svg"
   xmlns="http://www.w3.org/2000/svg"
   xmlns:sodipodi="http://sodipodi.sourceforge.net/DTD/sodipodi-0.dtd"
   xmlns:inkscape="http://www.inkscape.org/namespaces/inkscape"
   width="200"
   height="400"
   id="svg6880"
   version="1.1"
   inkscape:version="0.92.4 (5da689c313, 2019-01-14)"
   sodipodi:docname="custom.svg">
  <defs
     id="defs6882" />
  <sodipodi:namedview
     id="base"
     pagecolor="#ffffff"
     bordercolor="#666666"
     borderopacity="1.0"
     inkscape:pageopacity="0.0"
     inkscape:pageshadow="2"
     inkscape:zoom="0.82441406"
     inkscape:cx="32.560289"
     inkscape:cy="74.995445"
     inkscape:document-units="px"
     inkscape:current-layer="g17349"
     showgrid="false"
     fit-margin-top="0"
     fit-margin-left="0"
     fit-margin-right="0"
     fit-margin-bottom="0"
     inkscape:window-width="1366"
     inkscape:window-height="745"
     inkscape:window-x="-8"
     inkscape:window-y="-8"
     inkscape:window-maximized="1" />
  <metadata
     id="metadata6885">
    <rdf:RDF>
      <cc:Work
         rdf:about="">
        <dc:format>image/svg+xml</dc:format>
        <dc:type
           rdf:resource="http://purl.org/dc/dcmitype/StillImage" />
        <dc:title></dc:title>
      </cc:Work>
    </rdf:RDF>
  </metadata>
  <g
     inkscape:label="Layer 1"
     inkscape:groupmode="layer"
     id="layer1"
     transform="translate(-135.62616,-110.31901)">
    <g
       style="display:inline;stroke-width:0.86591619"
       id="g17349"
       transform="matrix(1.1556336,0,0,1.1540594,-133.95786,-2571.5919)">
      <path
         style="fill:none;stroke:#dba981;stroke-width:2.59766197;stroke-linecap:round;stroke-linejoin:miter;stroke-miterlimit:4;stroke-dasharray:none;stroke-opacity:1"
         d="m 242.38716,2667.9206 c -1.11396,-16.6946 -1.78234,-33.3891 -0.33419,-50.0837 1.22537,-15.5815 4.12168,-28.9372 8.02057,-43.4058 2.33933,-8.9037 7.90917,-14.4686 9.13453,-22.2593 1.67096,-13.3557 -2.45072,-24.4854 -3.00771,-37.841 -0.33419,-4.4519 1.67095,-8.9037 -0.22279,-15.5816 -7.46358,-6.6778 -15.37275,-25.5982 -15.14996,-35.615 0.22279,-12.2426 6.9066,-18.9204 10.02571,-30.0501 1.44816,-5.5649 -5.34705,-13.3557 -7.46359,-22.2594 -2.11653,-10.0167 0.66839,-21.1464 4.45588,-21.1464 9.58012,-2.226 23.39331,-8.9038 31.19109,-14.4686 7.68637,-6.6779 11.13967,-25.5983 8.35475,-42.2929 11.13968,-12.2426 53.47045,-3.3389 53.47045,-3.3389 0,0 -2.89632,23.3724 2.45073,31.1632 9.02314,12.2426 31.97087,17.8075 40.10283,21.1464 14.25879,6.6778 13.47901,11.1297 15.26136,18.9205 3.89888,18.9204 -7.24079,40.0668 -14.37018,54.5354 -4.56727,13.3557 -4.56727,26.7113 -8.13197,38.954 -2.67352,7.7908 -6.23822,15.5815 -7.68637,23.3723 -1.78235,7.7908 -4.56727,15.5816 -4.56727,24.4853 0.89117,10.0168 4.56727,22.2594 9.58012,31.1632 5.34704,10.0167 13.47901,27.8242 17.93488,43.4058 4.45587,13.3556 5.34704,27.8242 6.23822,41.1798"
         id="path4164"
         inkscape:connector-curvature="0"
         sodipodi:nodetypes="cccccccccccccccaccccccc" />
      <path
         sodipodi:nodetypes="caac"
         inkscape:connector-curvature="0"
         id="path3009-9-1"
         d="m 386.98016,2384.1134 c -10.69409,2.226 -17.48929,7.7908 -22.16796,15.5816 -8.35475,14.4686 -17.0437,36.728 -6.23822,50.0836 5.79264,6.6778 21.72237,7.7908 27.06942,0"
         style="fill:none;stroke:#dba981;stroke-width:2.59766197;stroke-linecap:round;stroke-linejoin:miter;stroke-miterlimit:4;stroke-dasharray:none;stroke-opacity:1" />
      <path
         sodipodi:nodetypes="csc"
         inkscape:connector-curvature="0"
         id="path3011-4-0"
         d="m 287.83704,2334.0298 c 0,0 6.57241,4.4519 18.71466,4.4519 26.95801,-1.113 32.75065,-7.7908 32.75065,-7.7908"
         style="fill:none;stroke:#dba981;stroke-width:2.59766197;stroke-linecap:round;stroke-linejoin:round;stroke-miterlimit:4;stroke-dasharray:none;stroke-opacity:1" />
      <g
         id="g4672"
         transform="translate(-7.5283364)">
        <path
           inkscape:connector-curvature="0"
           id="path4050-8-0-5-3-4-47-4-7"
           d="m 351.23893,2497.1944 c 0,17.3992 -13.90375,28.9984 -31.57311,28.9984 -17.09004,0 -31.28346,-11.5992 -31.28346,-28.9984 0,-17.3989 14.19342,-28.998 31.28346,-28.998 17.37969,0 31.28347,11.5991 31.57311,28.998"
           style="color:#000000;display:inline;overflow:visible;visibility:visible;fill:#ffffff;fill-opacity:1;stroke:#00000f;stroke-width:0.93640178;stroke-linecap:round;stroke-linejoin:miter;stroke-miterlimit:4;stroke-dashoffset:0;stroke-opacity:0.94120029;marker:none;enable-background:accumulate" />
        <text
           transform="scale(0.88297438,1.1325357)"
           id="text4667"
           y="2216.2024"
           x="337.81567"
           style="font-size:31.41432571px;line-height:2.45000005;font-family:'Arial Rounded MT Bold';-inkscape-font-specification:'Arial Rounded MT Bold, ';letter-spacing:0px;word-spacing:0px;stroke-width:0.74981081"
           xml:space="preserve"><tspan
             style="stroke-width:0.74981081"
             y="2216.2024"
             x="337.81567"
             id="tspan4665"
             sodipodi:role="line">CM</tspan></text>
      </g>
    </g>
  </g>
</svg>
